<svg xmlns="http://www.w3.org/2000/svg" width="208" height="55" viewBox="0 0 208 55" fill="none">
<path fill-rule="evenodd" clip-rule="evenodd" d="M27.5001 2.72595C34.0705 2.72595 40.3719 5.33607 45.0179 9.98209C49.6639 14.6281 52.2741 20.9295 52.2741 27.4999C52.2741 32.3998 50.8211 37.1896 48.0989 41.2636C45.3767 45.3377 41.5075 48.513 36.9807 50.3881C32.4538 52.2632 27.4726 52.7538 22.6669 51.7979C17.8612 50.842 13.4469 48.4825 9.98222 45.0178C6.51751 41.5531 4.15802 37.1388 3.20211 32.3331C2.2462 27.5274 2.73681 22.5462 4.61189 18.0194C6.48697 13.4925 9.66231 9.62333 13.7364 6.90113C17.8104 4.17893 22.6002 2.72595 27.5001 2.72595Z" fill="#F6FCFC"/>
<path fill-rule="evenodd" clip-rule="evenodd" d="M52.7207 4.56567L50.4345 2.27927L45.7675 6.94627C40.91 2.62588 34.5121 0 27.4999 0C20.4878 0 14.0901 2.62605 9.23265 6.94627L4.56565 2.27927L2.27941 4.56567L6.94627 9.2325C2.62553 14.0896 0 20.4879 0 27.5001C0 34.5118 2.62505 40.911 6.9453 45.7685L2.27941 50.4344L4.56565 52.7206L9.23135 48.0549C14.0886 52.3751 20.4878 55 27.4999 55C34.512 55 40.9112 52.3751 45.7686 48.0547L50.4345 52.7206L52.7207 50.4344L48.0548 45.7685C52.3751 40.911 55 34.5118 55 27.5001C55 20.488 52.3743 14.0896 48.0537 9.2325L52.7207 4.56567ZM51.7667 27.5001C51.7667 14.0978 40.9021 3.23325 27.4999 3.23325C14.0978 3.23325 3.23322 14.0978 3.23322 27.5001C3.23322 34.2013 5.94944 40.2681 10.3407 44.6593C14.7317 49.0505 20.7987 51.7667 27.4999 51.7667C34.2011 51.7667 40.2681 49.0505 44.6593 44.6593C49.0505 40.2683 51.7667 34.2014 51.7667 27.5001Z" fill="#0B9A78"/>
<path fill-rule="evenodd" clip-rule="evenodd" d="M27.6546 8.42823C16.1573 8.22144 8.35628 17.7718 8.38214 27.5403C8.40769 37.0991 16.3076 46.7504 27.6543 46.5727C38.4724 46.4031 46.5666 37.8294 46.6175 27.6802C46.6253 26.1887 46.5146 25.1708 46.2316 23.7873H23.0531V31.2553H38.2199C36.6692 35.6816 32.4557 38.8563 27.4999 38.8563C21.2281 38.8563 16.1437 33.7719 16.1437 27.4999C16.1437 21.2281 21.2281 16.1437 27.4999 16.1437C30.667 16.1437 33.5304 17.4405 35.59 19.5314H44.883C42.6911 14.8294 39.1559 12.1332 37.103 10.9886C34.1478 9.34063 31.1908 8.49175 27.6546 8.42823Z" fill="#0B9A78"/>
<path d="M27.4397 31.1972H33.9976L27.4397 27.4177V31.1972Z" fill="#16AD88"/>
<path d="M22.9619 31.1972H27.4396V27.4177L22.9619 29.9962V31.1972Z" fill="#0B9A78"/>
<path d="M22.9619 29.9962L27.4396 27.4177L22.9619 24.8392V29.9962Z" fill="#16AD88"/>
<path d="M22.9619 24.8392L27.4396 27.4177V23.6735H22.9619V24.8392Z" fill="#087B5F"/>
<path d="M27.4397 27.4177L33.9271 23.6735H27.4397V27.4177Z" fill="#046C55"/>
<path d="M27.4397 27.4177L33.9976 31.1972H37.065V23.6735H33.9271L27.4397 27.4177Z" fill="#0B9A78"/>
<path d="M46.6904 27.4177L40.2382 23.6735H37.1003V31.1972H38.2638C38.0875 31.6917 37.876 32.1862 37.6291 32.6807L46.6904 27.4177Z" fill="#16AD88"/>
<path d="M37.3471 33.1399L44.1518 37.0607C45.7737 34.2349 46.6904 31.0205 46.7257 27.5943C46.7257 27.5236 46.7257 27.4883 46.7257 27.4177L37.5939 32.6807C37.5234 32.822 37.4176 32.9986 37.3471 33.1399Z" fill="#0B9A78"/>
<path d="M44.1518 37.0607L37.3471 33.1399C37.2765 33.2812 37.1708 33.4578 37.065 33.5991V44.0898C40.0266 42.3944 42.4594 39.9571 44.1518 37.0607Z" fill="#5CBB9E"/>
<path d="M37.065 44.0899V33.5991C35.1258 36.6368 31.7763 38.6855 27.9332 38.8622L37.065 44.0899Z" fill="#0B9A78"/>
<path d="M37.065 44.1252L27.9686 38.8622C27.7923 38.8622 27.616 38.8975 27.4397 38.8975V46.6684C27.475 46.6684 27.5455 46.6684 27.5807 46.6684C31.1065 46.5978 34.3149 45.6794 37.065 44.1252Z" fill="#5CBB9E"/>
<path d="M17.8496 44.1252C20.5997 45.75 23.8434 46.7037 27.4397 46.6684V38.8975C27.2634 38.8975 27.0871 38.8975 26.9108 38.8975L17.8496 44.1252Z" fill="#0B9A78"/>
<path d="M26.9108 38.8622C23.103 38.6855 19.7535 36.6368 17.8143 33.5991V44.0899C17.8143 44.0899 17.8496 44.0899 17.8496 44.1252L26.9108 38.8622Z" fill="#5CBB9E"/>
<path d="M17.8143 44.0898V33.5991C17.7085 33.4578 17.638 33.3165 17.5322 33.1399L10.8333 37.0254C12.4904 39.8865 14.8879 42.359 17.8143 44.0898Z" fill="#0B9A78"/>
<path d="M17.2855 32.6807L8.18896 27.4177V27.453C8.18896 30.7733 9.14092 34.0936 10.8333 37.0254L17.5323 33.1399C17.4617 32.9986 17.356 32.822 17.2855 32.6807Z" fill="#16AD88"/>
<path d="M8.18896 27.4177L17.2855 32.6807C16.4745 31.0912 16.0162 29.3251 16.0162 27.4177C16.0162 25.5103 16.4745 23.7442 17.2855 22.1547L8.18896 27.4177Z" fill="#0B9A78"/>
<path d="M8.18896 27.4177L17.2855 22.1546C17.356 22.0133 17.4617 21.8367 17.5323 21.6954L10.7628 17.7747C9.10567 20.7064 8.18896 24.0267 8.18896 27.4177Z" fill="#046C55"/>
<path d="M17.5323 21.6955C17.6028 21.5542 17.7086 21.3776 17.8144 21.2363V10.7102L16.7919 11.3107C14.2886 12.9708 12.2436 15.2315 10.7628 17.81L17.5323 21.6955Z" fill="#087B5F"/>
<path d="M17.8143 10.7102V21.2363C19.7535 18.1986 23.103 16.1499 26.9108 15.9732L17.8143 10.7102Z" fill="#046C55"/>
<path d="M18.9073 10.0744L17.8143 10.7102L26.9108 15.9732C27.0871 15.9732 27.2634 15.9732 27.4397 15.9732V8.16697C24.3017 8.13165 21.4106 8.8381 18.9073 10.0744Z" fill="#087B5F"/>
<path d="M37.065 10.7102L27.9685 15.9732C30.9654 16.1145 33.645 17.3861 35.5842 19.3642H37.065V10.7102Z" fill="#087B5F"/>
<path d="M27.616 8.16699C27.5807 8.16699 27.5102 8.16699 27.475 8.16699V15.9379C27.6513 15.9379 27.8276 15.9379 28.0038 15.9379L37.0651 10.7102C34.1034 9.08537 31.1418 8.23764 27.616 8.16699Z" fill="#046C55"/>
<path d="M44.9627 19.3642C44.7159 18.799 44.4339 18.2692 44.1165 17.7747L41.3312 19.3642H44.9627Z" fill="#087B5F"/>
<path d="M46.6904 27.4177C46.6904 26.0048 46.5846 25.0158 46.3025 23.6735H40.2382L46.6904 27.4177Z" fill="#087B5F"/>
<path d="M37.1355 10.7455C37.1355 10.7455 37.1003 10.7455 37.1003 10.7102V19.3642H41.3665L44.1518 17.7747C41.9306 13.9952 38.9337 11.7699 37.1355 10.7455Z" fill="#046C55"/>
</svg>